<svg width="33" height="33" viewBox="0 0 33 33" fill="none" xmlns="http://www.w3.org/2000/svg">
<path d="M10.3815 29.9063C22.8312 29.9063 29.6426 19.5892 29.6426 10.6451C29.6426 10.3551 29.6362 10.0586 29.6233 9.76853C30.9483 8.81029 32.0918 7.62338 33 6.26357C31.766 6.81261 30.4558 7.17118 29.1141 7.32704C30.5268 6.48028 31.5845 5.15005 32.0912 3.58296C30.7623 4.37055 29.3089 4.92612 27.7935 5.22587C26.7724 4.14093 25.4224 3.42257 23.9521 3.18185C22.4818 2.94114 20.9731 3.19147 19.6594 3.89416C18.3456 4.59685 17.3 5.71275 16.684 7.06933C16.0681 8.42592 15.9162 9.94763 16.2519 11.3992C13.5609 11.2642 10.9284 10.5651 8.52497 9.34742C6.12154 8.12971 4.00083 6.42051 2.30033 4.33062C1.43605 5.82074 1.17158 7.58404 1.56067 9.26216C1.94976 10.9403 2.96321 12.4073 4.39506 13.365C3.32011 13.3309 2.26872 13.0415 1.32773 12.5207V12.6045C1.32677 14.1682 1.86738 15.6841 2.85768 16.8943C3.84797 18.1046 5.22682 18.9346 6.75984 19.2431C5.76408 19.5156 4.71898 19.5553 3.70541 19.3591C4.138 20.704 4.97966 21.8803 6.11293 22.7237C7.24621 23.5672 8.61454 24.0359 10.027 24.0642C7.62908 25.9478 4.66699 26.9695 1.61777 26.9646C1.07702 26.9638 0.536799 26.9307 0 26.8654C3.09768 28.8527 6.70111 29.9082 10.3815 29.9063Z" fill="white"/>
</svg>
